<svg width="35" height="35" fill="none" xmlns="http://www.w3.org/2000/svg"><path d="M13.363 3.333 13.355 5h8.178l.01-1.667h-8.18ZM26.667 5.002V1.665a1.667 1.667 0 0 0-3.334 0v3.337a1.667 1.667 0 0 0 3.334 0ZM10.417 6.667c.69 0 1.25-.557 1.25-1.254v-4.16c0-.691-.559-1.253-1.25-1.253h-.834c-.69 0-1.25.557-1.25 1.253v4.159c0 .693.559 1.255 1.25 1.255h.834Z" fill="#fff"/><path d="m6.617 5 .008-1.667H1.048C.468 3.333 0 3.818 0 4.415V33.92C0 34.517.468 35 1.047 35h32.905c.58 0 1.048-.485 1.048-1.08V4.415c0-.598-.47-1.082-1.048-1.082h-5.607L28.337 5h4.996v8.333H1.667V5h4.95Zm.05 28.333H2.383c-.396 0-.716-.278-.716-.623v-4.377h5v5Zm0-6.666h-5v-5h5v5ZM28.333 15h5v5h-5v-5Zm0 6.667h5v5h-5v-5Zm0 6.666h5v4.377c0 .343-.321.623-.716.623h-4.284v-5ZM21.667 15h5v5h-5v-5Zm0 6.667h5v5h-5v-5Zm0 6.666h5v5h-5v-5ZM15 15h5v5h-5v-5Zm0 13.333h5v5h-5v-5ZM8.333 15h5v5h-5v-5Zm0 6.667h5v5h-5v-5Zm0 6.666h5v5h-5v-5ZM6.667 15v5h-5v-5h5Z" fill="#fff"/></svg>