<svg width="42" height="40" fill="none" xmlns="http://www.w3.org/2000/svg"><path d="M37.47 29.614a11.741 11.741 0 0 0 1.576-5.743c.02-2.008-.48-3.99-1.458-5.77a12.412 12.412 0 0 0-4.147-4.431 13.205 13.205 0 0 0-5.853-2.041 12.173 12.173 0 0 0-2.887-4.084 12.887 12.887 0 0 0-4.348-2.662 13.374 13.374 0 0 0-10.117.373 12.754 12.754 0 0 0-4.119 2.975 12.048 12.048 0 0 0-2.547 4.284 11.64 11.64 0 0 0-.56 4.894 11.77 11.77 0 0 0 1.52 4.705L3.477 25.62a1.789 1.789 0 0 0-.013.985c.088.324.265.62.514.856.248.236.558.405.898.49.34.083.697.079 1.035-.013l3.68-1.002a13.233 13.233 0 0 0 4.814 1.433 12.19 12.19 0 0 0 3.018 4.205 12.926 12.926 0 0 0 4.557 2.665 13.4 13.4 0 0 0 5.303.659 13.28 13.28 0 0 0 5.123-1.462l3.681 1.002c.338.092.695.096 1.035.012.34-.084.65-.253.898-.49.249-.236.426-.531.514-.855a1.788 1.788 0 0 0-.013-.985l-1.051-3.506ZM9.722 24.99c-.092 0-.183.012-.27.036l-4.08 1.11 1.165-3.886a.895.895 0 0 0-.1-.736 9.893 9.893 0 0 1-1.324-7.18c.491-2.468 1.912-4.679 3.994-6.22 2.083-1.54 4.684-2.303 7.316-2.146 2.631.157 5.112 1.223 6.976 2.999 1.865 1.776 2.985 4.138 3.15 6.645.164 2.506-.637 4.983-2.255 6.966-1.617 1.984-3.94 3.336-6.53 3.805-2.59.468-5.27.02-7.539-1.261a1.021 1.021 0 0 0-.503-.132Zm25.743 4.76 1.165 3.886-4.08-1.11a1.03 1.03 0 0 0-.773.096 11.197 11.197 0 0 1-4.164 1.36 11.353 11.353 0 0 1-4.389-.33 11.023 11.023 0 0 1-3.889-1.966 10.422 10.422 0 0 1-2.746-3.276 13.27 13.27 0 0 0 5.258-1.442 12.63 12.63 0 0 0 4.143-3.402 11.915 11.915 0 0 0 2.27-4.74 11.611 11.611 0 0 0-.017-5.211c1.712.305 3.322 1 4.692 2.024a10.408 10.408 0 0 1 3.18 3.86 9.888 9.888 0 0 1 .948 4.821 9.963 9.963 0 0 1-1.498 4.694.91.91 0 0 0-.1.736Z" fill="#fff"/></svg>