<svg width="26" height="30" fill="none" xmlns="http://www.w3.org/2000/svg"><path d="M18.006 4.745C18.956 3.64 19.614 2.12 19.614.6c0-.206-.02-.431-.058-.6-1.53.056-3.391.994-4.496 2.27-.872.956-1.685 2.475-1.685 4.014 0 .225.038.469.058.544.097.018.252.037.407.037 1.395 0 3.139-.9 4.166-2.12Zm1.085 2.439c-2.325 0-4.205 1.37-5.406 1.37-1.28 0-2.985-1.295-5-1.295-3.817 0-7.712 3.076-7.712 8.834 0 3.62 1.453 7.41 3.216 9.867 1.531 2.082 2.868 3.77 4.767 3.77 1.9 0 2.752-1.22 5.116-1.22 2.384 0 2.926 1.182 5.02 1.182 2.092 0 3.468-1.838 4.766-3.657 1.473-2.082 2.093-4.108 2.112-4.22-.116-.038-4.108-1.595-4.108-6.022 0-3.807 3.14-5.514 3.314-5.645-2.054-2.89-5.213-2.964-6.085-2.964Z" fill="#fff"/></svg>