<svg width="29" height="29" fill="none" xmlns="http://www.w3.org/2000/svg"><path d="m6.547 2.813 9.086 9.464a.604.604 0 0 0 .868 0l1.841-1.916a.597.597 0 0 0-.132-.94C13.457 6.731 7.566 3.398 6.547 2.813Zm-2.752.628c-.104.24-.17.5-.17.793v20.65c0 .236.052.453.132.66l10.228-10.652a.598.598 0 0 0 0-.836L3.796 3.441Zm17.28 7.746a.598.598 0 0 0-.345.179l-2.586 2.69a.598.598 0 0 0 0 .836l2.563 2.667c.189.198.495.24.736.103 1.79-1.014 2.997-1.694 2.997-1.694.605-.368.944-.93.935-1.544-.01-.599-.359-1.156-.94-1.482-.07-.042-1.25-.708-2.973-1.68a.588.588 0 0 0-.387-.075Zm-5.008 5.3a.601.601 0 0 0-.439.189l-9.015 9.383a11154.4 11154.4 0 0 1 11.573-6.551.602.602 0 0 0 .133-.944L16.5 16.676a.584.584 0 0 0-.434-.189Z" fill="#fff"/></svg>