<svg width="23" height="25" fill="none" xmlns="http://www.w3.org/2000/svg"><path d="m3.57.813 9.086 9.464a.604.604 0 0 0 .869 0l1.84-1.917a.597.597 0 0 0-.132-.939C10.48 4.731 4.59 1.398 3.57.813Zm-2.752.628c-.104.24-.17.5-.17.793v20.65c0 .236.052.453.132.66L11.01 12.893a.598.598 0 0 0 0-.836L.819 1.441Zm17.28 7.745a.598.598 0 0 0-.344.18l-2.587 2.69a.598.598 0 0 0 0 .836l2.563 2.667c.189.198.496.24.736.103 1.79-1.014 2.998-1.694 2.998-1.694.604-.368.944-.93.934-1.544-.01-.599-.358-1.156-.939-1.482-.07-.042-1.25-.708-2.974-1.68a.588.588 0 0 0-.387-.076Zm-5.008 5.301a.601.601 0 0 0-.439.189l-9.015 9.383c1.553-.882 7.075-4.007 11.574-6.551a.602.602 0 0 0 .132-.944l-1.817-1.888a.583.583 0 0 0-.435-.189Z" fill="#A658DB"/></svg>