<svg width="11" height="12" fill="none" xmlns="http://www.w3.org/2000/svg"><path d="M9.448.5h-7.6C.987.5.334 1.154.334 2.012v7.601c0 .858.654 1.512 1.512 1.512h7.601c.858 0 1.512-.654 1.512-1.512V2.012C10.96 1.154 10.306.5 9.448.5ZM5.648 9c1.757 0 3.187-1.39 3.187-3.065 0-.286-.04-.613-.123-.858h.9v4.332a.41.41 0 0 1-.41.408h-7.11a.41.41 0 0 1-.408-.408V5.036h.94a3.11 3.11 0 0 0-.123.858C2.461 7.611 3.891 9 5.648 9Zm0-1.226c-1.145 0-2.044-.899-2.044-2.002 0-1.104.9-2.003 2.044-2.003 1.144 0 2.043.9 2.043 2.003 0 1.144-.9 2.002-2.043 2.002ZM9.57 3.401c0 .246-.205.45-.45.45H7.977a.454.454 0 0 1-.45-.45V2.298c0-.245.205-.45.45-.45H9.12c.245 0 .45.205.45.45v1.103Z" fill="#8253D8"/></svg>