<svg width="106" height="19" fill="none" xmlns="http://www.w3.org/2000/svg"><path d="M4.992 7.776 3.84 18H.912L3.216.36l6.888 11.4L17.016.36 19.32 18h-2.928L15.24 7.776l-5.136 8.664-5.112-8.664ZM21.115 9.6c0-1.248.216-2.4.648-3.456a7.994 7.994 0 0 1 1.824-2.76 8.575 8.575 0 0 1 2.784-1.824c1.056-.432 2.208-.648 3.456-.648 1.248 0 2.4.216 3.456.648 1.072.432 2 1.04 2.784 1.824a7.832 7.832 0 0 1 1.848 2.76c.432 1.056.648 2.208.648 3.456 0 1.248-.216 2.408-.648 3.48a8.575 8.575 0 0 1-1.824 2.784 8.555 8.555 0 0 1-2.784 1.848c-1.056.432-2.216.648-3.48.648-1.264 0-2.424-.216-3.48-.648a8.622 8.622 0 0 1-2.76-1.848 8.575 8.575 0 0 1-1.824-2.784c-.432-1.072-.648-2.232-.648-3.48Zm3 0c0 1.152.24 2.184.72 3.096a5.507 5.507 0 0 0 2.04 2.112c.864.512 1.848.768 2.952.768 1.12 0 2.104-.256 2.952-.768a5.336 5.336 0 0 0 2.016-2.112c.496-.912.744-1.944.744-3.096 0-1.152-.24-2.176-.72-3.072a5.296 5.296 0 0 0-2.016-2.136c-.848-.512-1.84-.768-2.976-.768-1.104 0-2.088.256-2.952.768a5.463 5.463 0 0 0-2.04 2.136c-.48.896-.72 1.92-.72 3.072ZM47 13.008 51.943 1.2h3.264l-8.208 17.736L38.79 1.2h3.264l4.944 11.808ZM57.16 1.2h10.224v2.496h-7.44v4.08h6.96v2.448h-6.96v5.28h7.44V18H57.161V1.2Zm12.751 8.4c0-1.248.216-2.4.648-3.456a7.994 7.994 0 0 1 1.824-2.76 8.575 8.575 0 0 1 2.784-1.824c1.056-.432 2.208-.648 3.456-.648 1.248 0 2.4.216 3.456.648 1.072.432 2 1.04 2.784 1.824a7.832 7.832 0 0 1 1.848 2.76c.432 1.056.648 2.208.648 3.456 0 1.248-.216 2.408-.648 3.48a8.575 8.575 0 0 1-1.824 2.784 8.555 8.555 0 0 1-2.784 1.848c-1.056.432-2.216.648-3.48.648-1.264 0-2.424-.216-3.48-.648a8.622 8.622 0 0 1-2.76-1.848 8.575 8.575 0 0 1-1.824-2.784c-.432-1.072-.648-2.232-.648-3.48Zm3 0c0 1.152.24 2.184.72 3.096a5.507 5.507 0 0 0 2.04 2.112c.864.512 1.848.768 2.952.768 1.12 0 2.104-.256 2.952-.768a5.336 5.336 0 0 0 2.016-2.112c.496-.912.744-1.944.744-3.096 0-1.152-.24-2.176-.72-3.072A5.296 5.296 0 0 0 81.6 4.392c-.848-.512-1.84-.768-2.976-.768-1.104 0-2.088.256-2.952.768a5.463 5.463 0 0 0-2.04 2.136c-.48.896-.72 1.92-.72 3.072Zm29.466-8.4h2.784v17.64L92.898 6.72V18h-2.784V.36l12.264 12.12V1.2Z" fill="#fff"/></svg>