<svg width="34" height="34" fill="none" xmlns="http://www.w3.org/2000/svg"><path d="m32.254 12.376-17.28 17.087c-2.863 2.832-7.505 2.832-10.368 0a7.193 7.193 0 0 1 0-10.253L20.158 3.83a4.927 4.927 0 0 1 6.912 0 4.795 4.795 0 0 1 0 6.836L11.518 26.045a2.463 2.463 0 0 1-3.457 0 2.398 2.398 0 0 1 0-3.417l13.824-13.67-1.728-1.709L6.334 20.92a4.795 4.795 0 0 0 0 6.835 4.927 4.927 0 0 0 6.912 0L28.8 12.378a7.193 7.193 0 0 0 0-10.253c-2.864-2.832-7.506-2.832-10.369 0L2.014 18.357l.06.06a9.583 9.583 0 0 0 .804 12.756c3.524 3.485 9.065 3.746 12.9.795l.06.06L33.98 14.086l-1.727-1.71Z" fill="#fff"/></svg>