<svg width="13" height="10" fill="none" xmlns="http://www.w3.org/2000/svg"><path d="M12.967 1.313a5.404 5.404 0 0 1-1.437.375c.5-.313.937-.813 1.125-1.375-.5.312-1 .5-1.625.625A2.459 2.459 0 0 0 9.217.125a2.507 2.507 0 0 0-2.5 2.5c0 .188 0 .375.063.562A7.366 7.366 0 0 1 1.593.562a2.845 2.845 0 0 0-.312 1.25c0 .875.437 1.625 1.125 2.063-.438 0-.813-.125-1.125-.313 0 1.188.875 2.25 2 2.438-.188.062-.438.063-.688.063-.187 0-.312 0-.5-.063.313 1 1.25 1.75 2.375 1.75-.875.688-1.937 1.062-3.125 1.062-.187 0-.375 0-.625-.062 1.125.688 2.438 1.125 3.875 1.125 4.624 0 7.124-3.813 7.124-7.125v-.313c.5-.187.938-.624 1.25-1.124Z" fill="#8253D8"/></svg>